<?xml version="1.0" encoding="UTF-8"?>
<svg version="1.1" xmlns="http://www.w3.org/2000/svg" viewBox="0 0 200 200">
<path d="M0 0 C66 0 132 0 200 0 C200 66 200 132 200 200 C134 200 68 200 0 200 C0 134 0 68 0 0 Z " fill="#FDFDFD" transform="translate(0,0)"/>
<path d="M0 0 C12.07354677 8.65180616 19.90426602 20.1422269 25.26220703 33.84619141 C25.60251953 34.66861328 25.94283203 35.49103516 26.29345703 36.33837891 C31.65654437 51.88140056 29.20269698 71.57687129 22.71923828 86.36572266 C19.13432693 93.41249347 14.82484403 100.18125303 9.26220703 105.84619141 C8.60220703 105.84619141 7.94220703 105.84619141 7.26220703 105.84619141 C7.26220703 106.50619141 7.26220703 107.16619141 7.26220703 107.84619141 C-9.4144154 122.66015444 -28.30389695 126.76249375 -50.06494141 126.02539062 C-67.35745665 124.86602762 -82.54021603 114.77055772 -94.05029297 102.40869141 C-108.60646893 85.17893211 -111.06712029 65.62615098 -109.73779297 43.84619141 C-109.11903227 39.22108097 -107.66258966 35.09030834 -105.73779297 30.84619141 C-105.30208984 29.82783203 -104.86638672 28.80947266 -104.41748047 27.76025391 C-95.78667655 9.03659731 -80.7009844 -3.02880719 -61.71826172 -10.17333984 C-41.10222147 -16.95528755 -17.66844813 -11.73097582 0 0 Z " fill="#FBFCFD" transform="translate(139.73779296875,19.15380859375)"/>
<path d="M0 0 C12.07354677 8.65180616 19.90426602 20.1422269 25.26220703 33.84619141 C25.60251953 34.66861328 25.94283203 35.49103516 26.29345703 36.33837891 C31.65654437 51.88140056 29.20269698 71.57687129 22.71923828 86.36572266 C19.13432693 93.41249347 14.82484403 100.18125303 9.26220703 105.84619141 C8.60220703 105.84619141 7.94220703 105.84619141 7.26220703 105.84619141 C7.26220703 106.50619141 7.26220703 107.16619141 7.26220703 107.84619141 C-9.4144154 122.66015444 -28.30389695 126.76249375 -50.06494141 126.02539062 C-67.35745665 124.86602762 -82.54021603 114.77055772 -94.05029297 102.40869141 C-108.60646893 85.17893211 -111.06712029 65.62615098 -109.73779297 43.84619141 C-109.11903227 39.22108097 -107.66258966 35.09030834 -105.73779297 30.84619141 C-105.30208984 29.82783203 -104.86638672 28.80947266 -104.41748047 27.76025391 C-95.78667655 9.03659731 -80.7009844 -3.02880719 -61.71826172 -10.17333984 C-41.10222147 -16.95528755 -17.66844813 -11.73097582 0 0 Z M-88.73779297 16.84619141 C-91.39039856 20.36544251 -93.63525612 23.97681687 -95.73779297 27.84619141 C-96.14642578 28.57966797 -96.55505859 29.31314453 -96.97607422 30.06884766 C-100.82227248 37.3190898 -100.82227248 37.3190898 -101.36279297 45.28369141 C-101.15654297 45.79931641 -100.95029297 46.31494141 -100.73779297 46.84619141 C-100.22732422 46.68376953 -99.71685547 46.52134766 -99.19091797 46.35400391 C-95.92534741 45.67801 -92.82139314 45.71444323 -89.48779297 45.72119141 C-87.59287109 45.71732422 -87.59287109 45.71732422 -85.65966797 45.71337891 C-82.33946804 45.82581596 -79.15075199 46.16137891 -75.86279297 46.60595703 C-65.66111313 47.75927194 -52.51246368 48.9884609 -43.73779297 42.84619141 C-39.43675848 38.93533515 -36.017592 34.69142054 -35.43701172 28.78759766 C-35.43314453 27.67255859 -35.42927734 26.55751953 -35.42529297 25.40869141 C-35.40015625 23.74 -35.40015625 23.74 -35.37451172 22.03759766 C-35.77022589 18.56126992 -36.73412011 16.67459505 -38.73779297 13.84619141 C-33.94493378 18.26066697 -32.06671748 21.07382767 -31.30029297 27.53369141 C-31.46985712 33.50234938 -34.28767832 39.01913604 -38.15966797 43.48681641 C-45.61015984 50.13618012 -52.92149159 50.27188271 -62.42529297 50.09619141 C-64.1162207 50.08845703 -64.1162207 50.08845703 -65.84130859 50.08056641 C-70.33447488 50.0377998 -74.38397584 49.95946118 -78.73779297 48.84619141 C-80.27749736 48.75671297 -81.82049235 48.71557681 -83.36279297 48.71337891 C-84.23419922 48.71208984 -85.10560547 48.71080078 -86.00341797 48.70947266 C-86.90576172 48.71333984 -87.80810547 48.71720703 -88.73779297 48.72119141 C-89.64013672 48.71732422 -90.54248047 48.71345703 -91.47216797 48.70947266 C-92.77927734 48.71140625 -92.77927734 48.71140625 -94.11279297 48.71337891 C-94.90427734 48.71450684 -95.69576172 48.71563477 -96.51123047 48.71679688 C-98.70781171 48.84444907 -100.62768009 49.23977484 -102.73779297 49.84619141 C-102.73779297 51.49619141 -102.73779297 53.14619141 -102.73779297 54.84619141 C-101.97595703 55.05373047 -101.21412109 55.26126953 -100.42919922 55.47509766 C-84.802438 60.13776424 -76.52145469 71.23765229 -66.98779297 83.72119141 C-60.64861501 91.88008633 -53.52529602 99.42314054 -42.77490234 101.1640625 C-32.45495385 102.1386152 -24.2052782 100.46273467 -15.92529297 94.09619141 C-11.60133449 90.1534636 -9.55867519 85.30883807 -7.73779297 79.84619141 C-7.6697633 78.11823789 -7.65283652 76.38783776 -7.67529297 74.65869141 C-7.68431641 73.75763672 -7.69333984 72.85658203 -7.70263672 71.92822266 C-7.71423828 71.24115234 -7.72583984 70.55408203 -7.73779297 69.84619141 C-4.27887924 75.88206477 -5.19061854 82.57145008 -6.92529297 89.09619141 C-9.75371126 97.52857865 -15.3815035 101.62844404 -23.17529297 105.59619141 C-30.69026129 108.21197846 -40.30652138 108.2787199 -47.67529297 105.22119141 C-49.05648213 104.47767276 -50.41280814 103.68578575 -51.73779297 102.84619141 C-52.39908203 102.43369141 -53.06037109 102.02119141 -53.74169922 101.59619141 C-62.10519161 95.83503813 -68.20066483 87.60171455 -74.36279297 79.65869141 C-81.3249408 70.70206628 -88.52069712 62.37156439 -99.73779297 58.84619141 C-100.72779297 58.84619141 -101.71779297 58.84619141 -102.73779297 58.84619141 C-102.03349717 76.73530477 -94.6747595 91.57706238 -81.73779297 103.84619141 C-78.54350251 106.44698077 -75.26104402 108.71585356 -71.73779297 110.84619141 C-71.10615234 111.23291016 -70.47451172 111.61962891 -69.82373047 112.01806641 C-56.93056617 119.15045517 -41.55362932 121.0149712 -27.26123047 117.59619141 C-17.64702007 114.73871711 -9.62344092 111.07096837 -1.73779297 104.84619141 C-1.10228516 104.37439453 -0.46677734 103.90259766 0.18798828 103.41650391 C7.4917706 97.6836016 12.73620844 89.36609358 16.26220703 80.84619141 C16.63474609 80.00701172 17.00728516 79.16783203 17.39111328 78.30322266 C22.65244739 64.42576649 22.68805825 46.4895096 16.82470703 32.83056641 C13.27736922 26.05515119 9.2987533 19.62431504 4.26220703 13.84619141 C3.60220703 13.84619141 2.94220703 13.84619141 2.26220703 13.84619141 C1.76720703 12.36119141 1.76720703 12.36119141 1.26220703 10.84619141 C-0.64658203 9.26589162 -2.50895409 7.8591505 -4.55029297 6.47119141 C-5.13343262 6.07343506 -5.71657227 5.67567871 -6.31738281 5.26586914 C-33.51221588 -12.74767673 -67.1627218 -6.65861487 -88.73779297 16.84619141 Z " fill="#084E88" transform="translate(139.73779296875,19.15380859375)"/>
<path d="M0 0 C0.33 0.66 0.66 1.32 1 2 C2.26457031 1.90138672 2.26457031 1.90138672 3.5546875 1.80078125 C7.6332808 2.03661828 10.56957539 3.334006 14.125 5.1875 C14.8051416 5.53337158 15.4852832 5.87924316 16.18603516 6.2355957 C23.017041 9.81684759 29.43772324 14.0232158 35.82080078 18.3425293 C41.34395689 22.05528622 46.98044747 25.16189304 53 28 C52.9378833 27.05616455 52.9378833 27.05616455 52.87451172 26.09326172 C52.55942533 20.47978144 53.20357728 17.39585788 57 13 C61.81346549 8.25088566 65.58340877 6.87261625 72.25 6.625 C78.05464636 6.70239528 81.74157439 8.0498767 86 12 C89.79663558 16.09295836 91.32055237 19.85709499 91.5625 25.4375 C91.15776567 33.34622761 88.01596326 39.6823978 82.71484375 45.49609375 C75.14283438 52.13669422 65.67526826 52.86994222 56.04638672 52.25634766 C44.52270389 50.81279397 36.21352908 41.40528701 29.4375 32.78125 C27.73394162 30.57316131 26.0526929 28.34886617 24.375 26.12109375 C16.18228685 15.35468289 9.22865856 9.33427255 -4 6 C-4 4.35 -4 2.7 -4 1 C-2.68 0.67 -1.36 0.34 0 0 Z " fill="#48B4FD" transform="translate(41,68)"/>
<path d="M0 0 C3.4375 1.8125 3.4375 1.8125 4.875 4.375 C5.060625 5.179375 5.24625 5.98375 5.4375 6.8125 C5.9325 7.8025 5.9325 7.8025 6.4375 8.8125 C7.15631745 16.06228738 7.35283287 22.24944569 2.8515625 28.234375 C-1.68035105 33.29209067 -7.15917074 36.33999356 -13.95825195 37.06958008 C-16.49943555 37.14239981 -19.021117 37.12410928 -21.5625 37.0625 C-22.83867188 37.05476563 -22.83867188 37.05476563 -24.140625 37.046875 C-28.03516077 36.99908929 -31.84619633 36.82747468 -35.70703125 36.3046875 C-39.59710932 35.80808179 -43.33047598 35.67944342 -47.25 35.6875 C-48.51199219 35.68492188 -49.77398437 35.68234375 -51.07421875 35.6796875 C-54.04759634 35.79289561 -56.67926128 36.11787652 -59.5625 36.8125 C-59.2325 34.5025 -58.9025 32.1925 -58.5625 29.8125 C-50.93398497 27.90537124 -43.52530253 27.45211127 -35.69628906 27.24243164 C-30.95379569 27.0805264 -27.02389942 26.62038735 -22.5625 24.8125 C-23.0575 24.008125 -23.5525 23.20375 -24.0625 22.375 C-25.91145571 17.9837302 -26.31460732 14.51105809 -25.5625 9.8125 C-19.9541726 -1.4041548 -11.55930364 -3.64254924 0 0 Z " fill="#49B4FD" transform="translate(97.5625,29.1875)"/>
<path d="M0 0 C3.89670401 1.67820236 6.60185432 3.40278147 9 7 C9.65237324 11.37433428 10.03401151 16.01269906 7.94921875 20.01953125 C5.57393996 22.89929403 3.56672817 24.80275005 -0.171875 25.2734375 C-7.98876369 25.58137554 -7.98876369 25.58137554 -11.5625 22.625 C-14.74845215 19.1939746 -15.15366957 17.68534258 -15.1875 13.125 C-15.20167969 12.26132813 -15.21585938 11.39765625 -15.23046875 10.5078125 C-14.98166443 7.8004841 -14.48346157 6.26653473 -13 4 C-8.59378392 0.94954272 -5.48149767 -0.91358294 0 0 Z " fill="#3D3D3D" transform="translate(59,158)"/>
<path d="M0 0 C1.98 0 3.96 0 6 0 C7.96938498 2.36085294 9.38172633 4.36899401 10.875 7 C11.2771875 7.66773438 11.679375 8.33546875 12.09375 9.0234375 C13.08210073 10.67068871 14.04371066 12.33393145 15 14 C15.33 9.38 15.66 4.76 16 0 C17.65 0 19.3 0 21 0 C21 7.92 21 15.84 21 24 C19.35 24 17.7 24 16 24 C13.83203125 21.69921875 13.83203125 21.69921875 11.8125 18.6875 C11.13832031 17.70136719 10.46414062 16.71523437 9.76953125 15.69921875 C9.18558594 14.80847656 8.60164063 13.91773438 8 13 C7.34 12.01 6.68 11.02 6 10 C5.67 14.62 5.34 19.24 5 24 C3.35 24 1.7 24 0 24 C0 16.08 0 8.16 0 0 Z " fill="#373737" transform="translate(73,159)"/>
<path d="M0 0 C1.65 0 3.3 0 5 0 C5.33 2.97 5.66 5.94 6 9 C6.43570312 8.3503125 6.87140625 7.700625 7.3203125 7.03125 C9.10628846 4.52624476 10.84929345 2.20222048 13 0 C16.4375 -0.5625 16.4375 -0.5625 19 0 C16.58047417 4.20233434 13.84444647 8.07927649 11 12 C11.6496875 12.78246094 12.299375 13.56492188 12.96875 14.37109375 C13.8040625 15.38300781 14.639375 16.39492187 15.5 17.4375 C16.3353125 18.44683594 17.170625 19.45617187 18.03125 20.49609375 C20 23 20 23 20 24 C17.2734375 24.28125 17.2734375 24.28125 14 24 C11.6640625 22.03125 11.6640625 22.03125 9.625 19.5 C8.93664063 18.6646875 8.24828125 17.829375 7.5390625 16.96875 C7.03117187 16.3190625 6.52328125 15.669375 6 15 C5.67 17.97 5.34 20.94 5 24 C3.35 24 1.7 24 0 24 C0 16.08 0 8.16 0 0 Z " fill="#3E3E3E" transform="translate(23,159)"/>
<path d="M0 0 C1.65 0 3.3 0 5 0 C5.33 6.27 5.66 12.54 6 19 C8.64 19 11.28 19 14 19 C14.33 12.73 14.66 6.46 15 0 C16.65 0 18.3 0 20 0 C20.05401695 2.91691525 20.09368066 5.83282724 20.125 8.75 C20.15013672 9.9875 20.15013672 9.9875 20.17578125 11.25 C20.18222656 12.04921875 20.18867188 12.8484375 20.1953125 13.671875 C20.20578613 14.4050293 20.21625977 15.13818359 20.22705078 15.89355469 C19.96372191 18.33656708 19.27614054 19.91038342 18 22 C13.98217336 24.6728762 9.66635392 24.71196209 5 24 C1.96784325 21.80168636 1.18345602 20.55036806 0 17 C-0.07973476 15.66474283 -0.10771338 14.32587917 -0.09765625 12.98828125 C-0.09443359 12.23095703 -0.09121094 11.47363281 -0.08789062 10.69335938 C-0.07951172 9.90767578 -0.07113281 9.12199219 -0.0625 8.3125 C-0.05798828 7.51521484 -0.05347656 6.71792969 -0.04882812 5.89648438 C-0.0370585 3.93095743 -0.01912348 1.96546915 0 0 Z " fill="#393939" transform="translate(136,159)"/>
<path d="M0 0 C2.8125 -0.3125 2.8125 -0.3125 6 0 C7.88599343 2.38892501 9 3.91851558 9 7 C9.66 7 10.32 7 11 7 C11.309375 6.21625 11.61875 5.4325 11.9375 4.625 C13 2 13 2 14 0 C15.98 0 17.96 0 20 0 C19.54367188 0.73605469 19.08734375 1.47210938 18.6171875 2.23046875 C18.04226562 3.20628906 17.46734375 4.18210938 16.875 5.1875 C16.29492188 6.15042969 15.71484375 7.11335937 15.1171875 8.10546875 C13.7056709 10.92709469 13.7056709 10.92709469 14.6875 13.6640625 C15.74977143 15.55465273 16.92208661 17.38312992 18.125 19.1875 C20 22 20 22 20 24 C17.8125 24.4375 17.8125 24.4375 15 24 C13.01558218 21.86004673 11.4976696 19.49824035 10 17 C9.69707031 17.5053125 9.39414063 18.010625 9.08203125 18.53125 C7.81585432 20.49479823 6.58981351 22.28557949 5 24 C2.1875 24.4375 2.1875 24.4375 0 24 C1.10245945 20.87636489 2.24111274 18.67851634 4.25 16 C6.3276262 13.20057547 6.3276262 13.20057547 5.5 10.5 C4.34332778 8.57221297 3.1220585 6.68308776 1.875 4.8125 C0 2 0 2 0 0 Z " fill="#3B3B3B" transform="translate(159,159)"/>
<path d="M0 0 C4.95 0 9.9 0 15 0 C15 1.32 15 2.64 15 4 C11.7 4 8.4 4 5 4 C5 5.98 5 7.96 5 10 C7.64 10 10.28 10 13 10 C13 11.32 13 12.64 13 14 C10.36 14 7.72 14 5 14 C5 17.3 5 20.6 5 24 C3.35 24 1.7 24 0 24 C0 16.08 0 8.16 0 0 Z " fill="#3D3D3D" transform="translate(99,159)"/>
<path d="M0 0 C2.375 0.9375 2.375 0.9375 4 3 C4.80596676 7.34235152 4.7638671 10.79544034 2.375 14.5625 C-0.72548536 16.43910956 -2.43283597 16.59452734 -6 16 C-8.375 14.5 -8.375 14.5 -10 12 C-10.81753559 7.92900647 -10.65416433 5.00640667 -8.375 1.5 C-5.29889257 -0.44280469 -3.58110811 -0.52224493 0 0 Z " fill="#FAFAFA" transform="translate(59,163)"/>
<path d="M0 0 C1.98 0 3.96 0 6 0 C6 6.6 6 13.2 6 20 C9.3 20 12.6 20 16 20 C16 21.32 16 22.64 16 24 C10.72 24 5.44 24 0 24 C0 16.08 0 8.16 0 0 Z " fill="#4E4E4E" transform="translate(118,159)"/>
</svg>
