<svg width="193" height="43" viewBox="0 0 193 43" fill="none" xmlns="http://www.w3.org/2000/svg">
<g clip-path="url(#clip0_41_1743)">
<path d="M64.21 31.58L57.82 23.75V31.58H54.3V14H57.82V21.88L64.21 14H68.46L61.21 22.71L68.6601 31.57H64.2L64.21 31.58Z" fill="#004884"/>
<path d="M73.3501 30.6C71.9701 29.83 70.8801 28.76 70.0801 27.39C69.2701 26.02 68.8701 24.47 68.8701 22.75C68.8701 21.03 69.2701 19.5 70.0801 18.13C70.8901 16.76 71.9801 15.69 73.3501 14.92C74.7301 14.15 76.2401 13.76 77.8801 13.76C79.5201 13.76 81.0601 14.15 82.4201 14.92C83.7901 15.69 84.8701 16.76 85.6701 18.13C86.4701 19.5 86.8701 21.04 86.8701 22.75C86.8701 24.46 86.4701 26.03 85.6701 27.39C84.8701 28.76 83.7901 29.83 82.4101 30.6C81.0301 31.37 79.5201 31.76 77.8801 31.76C76.2401 31.76 74.7201 31.37 73.3501 30.6ZM80.6801 27.89C81.4901 27.41 82.1101 26.73 82.5701 25.84C83.0201 24.95 83.2501 23.92 83.2501 22.74C83.2501 21.56 83.0201 20.54 82.5701 19.66C82.1201 18.78 81.4901 18.1 80.6801 17.63C79.8701 17.16 78.9401 16.93 77.8901 16.93C76.8401 16.93 75.9001 17.17 75.0801 17.63C74.2701 18.1 73.6301 18.78 73.1801 19.66C72.7301 20.54 72.5001 21.57 72.5001 22.74C72.5001 23.91 72.7301 24.95 73.1801 25.84C73.6301 26.73 74.2701 27.41 75.0801 27.89C75.8901 28.37 76.8301 28.61 77.8901 28.61C78.9501 28.61 79.8801 28.37 80.6801 27.89Z" fill="#004884"/>
<path d="M105.15 31.58H101.63L93.6499 19.52V31.58H90.1299V13.98H93.6499L101.63 26.06V13.98H105.15V31.58Z" fill="#004884"/>
<path d="M119.78 14V16.84H112.45V21.35H118.06V24.14H112.45V31.57H108.93V14H119.78Z" fill="#004884"/>
<path d="M126.43 28.78H133.73V31.57H122.9V14H126.42V28.78H126.43Z" fill="#004884"/>
<path d="M139.19 14V24.88C139.19 26.07 139.5 26.98 140.12 27.61C140.74 28.24 141.61 28.55 142.74 28.55C143.87 28.55 144.76 28.24 145.38 27.61C146 26.98 146.31 26.07 146.31 24.88V14H149.86V24.85C149.86 26.34 149.54 27.61 148.89 28.64C148.24 29.67 147.38 30.45 146.3 30.97C145.22 31.49 144.01 31.75 142.69 31.75C141.37 31.75 140.19 31.49 139.13 30.97C138.06 30.45 137.22 29.67 136.6 28.64C135.98 27.61 135.67 26.35 135.67 24.85V14H139.19Z" fill="#004884"/>
<path d="M162.84 31.58L159.04 25.66L155.59 31.58H151.61L157.15 22.72L151.54 14.01H155.59L159.39 19.9L162.81 14.01H166.79L161.28 22.85L166.89 31.59H162.84V31.58Z" fill="#004884"/>
<path d="M21.21 40.52C31.9795 40.52 40.71 31.7896 40.71 21.02C40.71 10.2505 31.9795 1.52 21.21 1.52C10.4404 1.52 1.70996 10.2505 1.70996 21.02C1.70996 31.7896 10.4404 40.52 21.21 40.52Z" fill="white"/>
<path d="M26.0801 22.04C22.6501 22.04 19.8601 24.82 19.8601 28.26C19.8601 28.49 19.8701 28.71 19.9001 28.93C14.5201 27.19 8.6401 20.31 2.1401 20.25C1.6501 20.25 1.1201 20.29 0.600098 20.38V21.67C0.990098 21.63 1.4001 21.63 1.8001 21.69C10.4601 23.06 12.1201 33.35 19.2501 36.12C24.2001 38.04 29.4201 35.98 31.4801 31.86C31.9801 30.87 32.3001 29.39 32.3001 28.25C32.3001 24.82 29.5201 22.03 26.0801 22.03V22.04Z" fill="#004884"/>
<path d="M18.9901 6.93999C16.1101 6.93999 13.7701 9.27999 13.7701 12.16C13.7701 13.3 14.1401 14.36 14.7601 15.22C14.5701 15.4 14.3301 15.57 14.0401 15.73C11.9101 16.92 10.8101 16.21 6.34011 16.69C4.62011 16.87 2.51011 17.46 0.960107 18.77C0.720107 19.51 0.510107 20.27 0.360107 21.05C1.02011 20.3 2.04011 19.43 3.66011 18.96C7.75011 17.77 11.5301 19.95 16.1601 19.51C19.0501 19.24 21.2401 18.63 23.0301 16.07C23.9901 14.7 24.2001 13.54 24.2001 12.15C24.2001 9.26999 21.8601 6.92999 18.9801 6.92999L18.9901 6.93999Z" fill="#004884"/>
<path d="M25.4599 20.55C22.2199 20.55 19.5899 23.18 19.5899 26.42C19.5899 26.63 19.5999 26.85 19.6199 27.05C14.5399 25.4 8.97993 18.91 2.83993 18.85C1.86993 18.85 2.14993 18.46 1.17993 18.79V19.96C2.02993 19.7 1.56993 20.06 2.51993 20.21C10.6999 21.51 12.2799 31.22 19.0099 33.84C23.6799 35.66 28.6199 33.71 30.5599 29.82C31.0299 28.88 31.3399 27.48 31.3399 26.41C31.3399 23.17 28.7099 20.54 25.4699 20.54L25.4599 20.55Z" fill="#48B5FF"/>
<path d="M18.0199 6.14C15.2999 6.14 13.0899 8.35 13.0899 11.07C13.0899 12.15 13.4399 13.15 14.0299 13.96C13.8499 14.13 13.6299 14.29 13.3499 14.44C11.3299 15.56 10.2999 14.89 6.07993 15.35C4.45993 15.52 2.45993 16.07 0.999932 17.31C0.769932 18.01 0.579932 18.73 0.429932 19.47C1.05993 18.76 2.01993 17.94 3.54993 17.49C7.41993 16.36 10.9899 18.43 15.3599 18.01C18.0899 17.75 20.1599 17.18 21.8499 14.76C22.7599 13.46 22.9499 12.37 22.9499 11.06C22.9499 8.34001 20.7399 6.13 18.0199 6.13V6.14Z" fill="#48B5FF"/>
<path d="M21.23 42.45C9.52 42.45 0 32.93 0 21.23C0 9.53 9.52 0 21.23 0C32.94 0 42.46 9.52 42.46 21.23C42.46 32.94 32.94 42.46 21.23 42.46V42.45ZM21.23 2.34C10.81 2.34 2.34 10.81 2.34 21.23C2.34 31.65 10.81 40.12 21.23 40.12C31.65 40.12 40.12 31.65 40.12 21.23C40.12 10.81 31.64 2.34 21.23 2.34Z" fill="#48B5FF"/>
</g>
<defs>
<clipPath id="clip0_41_1743">
<rect width="166.9" height="42.45" fill="white"/>
</clipPath>
</defs>
</svg>
