<svg width="167" height="43" viewBox="0 0 167 43" fill="none" xmlns="http://www.w3.org/2000/svg">
<g clip-path="url(#clip0_42_1775)">
<path d="M64.21 31.58L57.82 23.75V31.58H54.3V14H57.82V21.88L64.21 14H68.46L61.21 22.71L68.66 31.57H64.2L64.21 31.58Z" fill="white"/>
<path d="M73.35 30.6C71.97 29.83 70.88 28.76 70.08 27.39C69.27 26.02 68.87 24.47 68.87 22.75C68.87 21.03 69.27 19.5 70.08 18.13C70.89 16.76 71.98 15.69 73.35 14.92C74.73 14.15 76.24 13.76 77.88 13.76C79.52 13.76 81.06 14.15 82.42 14.92C83.79 15.69 84.87 16.76 85.67 18.13C86.47 19.5 86.87 21.04 86.87 22.75C86.87 24.46 86.47 26.03 85.67 27.39C84.87 28.76 83.79 29.83 82.41 30.6C81.03 31.37 79.52 31.76 77.88 31.76C76.24 31.76 74.72 31.37 73.35 30.6ZM80.68 27.89C81.49 27.41 82.11 26.73 82.57 25.84C83.02 24.95 83.25 23.92 83.25 22.74C83.25 21.56 83.02 20.54 82.57 19.66C82.12 18.78 81.49 18.1 80.68 17.63C79.87 17.16 78.94 16.93 77.89 16.93C76.84 16.93 75.9 17.17 75.08 17.63C74.27 18.1 73.63 18.78 73.18 19.66C72.73 20.54 72.5 21.57 72.5 22.74C72.5 23.91 72.73 24.95 73.18 25.84C73.63 26.73 74.27 27.41 75.08 27.89C75.89 28.37 76.83 28.61 77.89 28.61C78.95 28.61 79.88 28.37 80.68 27.89Z" fill="white"/>
<path d="M105.15 31.58H101.63L93.65 19.52V31.58H90.13V13.98H93.65L101.63 26.06V13.98H105.15V31.58Z" fill="white"/>
<path d="M119.78 14V16.84H112.45V21.35H118.06V24.14H112.45V31.57H108.93V14H119.78Z" fill="white"/>
<path d="M126.43 28.78H133.73V31.57H122.9V14H126.42V28.78H126.43Z" fill="white"/>
<path d="M139.19 14V24.88C139.19 26.07 139.5 26.98 140.12 27.61C140.74 28.24 141.61 28.55 142.74 28.55C143.87 28.55 144.76 28.24 145.38 27.61C146 26.98 146.31 26.07 146.31 24.88V14H149.86V24.85C149.86 26.34 149.54 27.61 148.89 28.64C148.24 29.67 147.38 30.45 146.3 30.97C145.22 31.49 144.01 31.75 142.69 31.75C141.37 31.75 140.19 31.49 139.13 30.97C138.06 30.45 137.22 29.67 136.6 28.64C135.98 27.61 135.67 26.35 135.67 24.85V14H139.19Z" fill="white"/>
<path d="M162.84 31.58L159.04 25.66L155.59 31.58H151.61L157.15 22.72L151.54 14.01H155.59L159.39 19.9L162.81 14.01H166.79L161.28 22.85L166.89 31.59H162.84V31.58Z" fill="white"/>
<path d="M21.21 40.52C31.9796 40.52 40.71 31.7895 40.71 21.02C40.71 10.2504 31.9796 1.51999 21.21 1.51999C10.4405 1.51999 1.71002 10.2504 1.71002 21.02C1.71002 31.7895 10.4405 40.52 21.21 40.52Z" fill="white"/>
<path d="M26.08 22.04C22.65 22.04 19.86 24.82 19.86 28.26C19.86 28.49 19.87 28.71 19.9 28.93C14.52 27.19 8.63998 20.31 2.13998 20.25C1.64998 20.25 1.11998 20.29 0.599976 20.38V21.67C0.989976 21.63 1.39998 21.63 1.79998 21.69C10.46 23.06 12.12 33.35 19.25 36.12C24.2 38.04 29.42 35.98 31.48 31.86C31.98 30.87 32.3 29.39 32.3 28.25C32.3 24.82 29.52 22.03 26.08 22.03V22.04Z" fill="#004884"/>
<path d="M18.99 6.93999C16.11 6.93999 13.77 9.27999 13.77 12.16C13.77 13.3 14.14 14.36 14.76 15.22C14.57 15.4 14.33 15.57 14.04 15.73C11.91 16.92 10.81 16.21 6.33999 16.69C4.61999 16.87 2.50999 17.46 0.959985 18.77C0.719985 19.51 0.509985 20.27 0.359985 21.05C1.01999 20.3 2.03999 19.43 3.65999 18.96C7.74999 17.77 11.53 19.95 16.16 19.51C19.05 19.24 21.24 18.63 23.03 16.07C23.99 14.7 24.2 13.54 24.2 12.15C24.2 9.26999 21.86 6.92999 18.98 6.92999L18.99 6.93999Z" fill="#004884"/>
<path d="M25.46 20.55C22.22 20.55 19.59 23.18 19.59 26.42C19.59 26.63 19.6 26.85 19.62 27.05C14.54 25.4 8.97999 18.91 2.83999 18.85C1.86999 18.85 2.14999 18.46 1.17999 18.79V19.96C2.02999 19.7 1.56999 20.06 2.51999 20.21C10.7 21.51 12.28 31.22 19.01 33.84C23.68 35.66 28.62 33.71 30.56 29.82C31.03 28.88 31.34 27.48 31.34 26.41C31.34 23.17 28.71 20.54 25.47 20.54L25.46 20.55Z" fill="#48B5FF"/>
<path d="M18.02 6.14C15.3 6.14 13.09 8.35 13.09 11.07C13.09 12.15 13.44 13.15 14.03 13.96C13.85 14.13 13.63 14.29 13.35 14.44C11.33 15.56 10.3 14.89 6.07999 15.35C4.45999 15.52 2.45999 16.07 0.999993 17.31C0.769993 18.01 0.579993 18.73 0.429993 19.47C1.05999 18.76 2.01999 17.94 3.54999 17.49C7.41999 16.36 10.99 18.43 15.36 18.01C18.09 17.75 20.16 17.18 21.85 14.76C22.76 13.46 22.95 12.37 22.95 11.06C22.95 8.34001 20.74 6.13 18.02 6.13V6.14Z" fill="#48B5FF"/>
<path d="M21.23 42.45C9.52 42.45 0 32.93 0 21.23C0 9.53 9.52 0 21.23 0C32.94 0 42.46 9.52 42.46 21.23C42.46 32.94 32.94 42.46 21.23 42.46V42.45ZM21.23 2.34C10.81 2.34 2.34 10.81 2.34 21.23C2.34 31.65 10.81 40.12 21.23 40.12C31.65 40.12 40.12 31.65 40.12 21.23C40.12 10.81 31.64 2.34 21.23 2.34Z" fill="#48B5FF"/>
</g>
<defs>
<clipPath id="clip0_42_1775">
<rect width="166.9" height="42.45" fill="white"/>
</clipPath>
</defs>
</svg>
